<svg width="20" height="20" viewBox="0 0 20 20">
<path class="i-str-white" d="M8.38965 11.1963C8.45168 11.3639 8.57516 11.501 8.7334 11.5801L8.80371 11.6104L12.5586 13L8.80371 14.3896C8.63606 14.4517 8.49896 14.5752 8.41992 14.7334L8.38965 14.8037L7 18.5586L5.61035 14.8037L5.58008 14.7334C5.51234 14.5978 5.40222 14.4877 5.2666 14.4199L5.19629 14.3896L1.44043 13L5.19629 11.6104C5.36394 11.5483 5.50104 11.4248 5.58008 11.2666L5.61035 11.1963L7 7.44043L8.38965 11.1963Z" stroke-linejoin="round"/>
<path class="i-str-white" d="M15.8496 3.73633C15.9117 3.90399 16.0351 4.04109 16.1934 4.12012L16.2637 4.15039L18.5586 5L16.2637 5.84961C16.096 5.91165 15.9589 6.0351 15.8799 6.19336L15.8496 6.26367L15 8.55859L14.1504 6.26367L14.1201 6.19336C14.0524 6.05769 13.9423 5.94763 13.8066 5.87988L13.7363 5.84961L11.4404 5L13.7363 4.15039C13.904 4.08835 14.0411 3.9649 14.1201 3.80664L14.1504 3.73633L15 1.44043L15.8496 3.73633Z" stroke-linejoin="round"/>
</svg>
