<svg width="24" height="24" viewBox="0 0 24 24">
    <path class="i-str-white" d="M10.3896 13.1963C10.4517 13.3639 10.5752 13.501 10.7334 13.5801L10.8037 13.6104L14.5586 15L10.8037 16.3896C10.6361 16.4517 10.499 16.5752 10.4199 16.7334L10.3896 16.8037L9 20.5586L7.61035 16.8037L7.58008 16.7334C7.51234 16.5978 7.40222 16.4877 7.2666 16.4199L7.19629 16.3896L3.44043 15L7.19629 13.6104C7.36394 13.5483 7.50104 13.4248 7.58008 13.2666L7.61035 13.1963L9 9.44043L10.3896 13.1963Z" stroke-linejoin="round"/>
    <path class="i-str-white" d="M17.8496 5.73633C17.9117 5.90399 18.0351 6.04109 18.1934 6.12012L18.2637 6.15039L20.5586 7L18.2637 7.84961C18.096 7.91165 17.9589 8.0351 17.8799 8.19336L17.8496 8.26367L17 10.5586L16.1504 8.26367L16.1201 8.19336C16.0411 8.0351 15.904 7.91165 15.7363 7.84961L13.4404 7L15.7363 6.15039C15.904 6.08835 16.0411 5.9649 16.1201 5.80664L16.1504 5.73633L17 3.44043L17.8496 5.73633Z" stroke-linejoin="round"/>
</svg>
