<svg width="20" height="18" viewBox="0 0 20 18">
<path class="i-fill-white" d="M12.084 0.346924C12.4421 0.368981 12.7919 0.468151 13.1094 0.637939C13.4269 0.807805 13.7037 1.04358 13.9209 1.32935L14.0098 1.45435V1.45532L14.8213 2.67407H14.8223C14.9593 2.8794 15.1447 3.04787 15.3623 3.16431C15.58 3.28075 15.8234 3.34208 16.0703 3.34204H17C17.663 3.34204 18.2987 3.60562 18.7676 4.07446C19.2364 4.5433 19.5 5.179 19.5 5.84204V14.842C19.5 15.5051 19.2364 16.1408 18.7676 16.6096C18.2987 17.0785 17.663 17.342 17 17.342H3C2.33696 17.342 1.70126 17.0785 1.23242 16.6096C0.763581 16.1408 0.5 15.5051 0.5 14.842V5.84204C0.5 5.179 0.763581 4.5433 1.23242 4.07446C1.70126 3.60562 2.33696 3.34204 3 3.34204H3.92969L4.11426 3.33032C4.29694 3.30774 4.47445 3.25162 4.6377 3.16431C4.80088 3.07701 4.94625 2.96091 5.06641 2.82153L5.17773 2.67407L5.99023 1.45532V1.45435L6.0791 1.32935C6.29626 1.04358 6.57309 0.807805 6.89062 0.637939C7.25347 0.443872 7.65883 0.341979 8.07031 0.342041H11.9297L12.084 0.346924ZM8.07031 1.34204C7.82342 1.342 7.58001 1.40333 7.3623 1.51978C7.14466 1.63621 6.95926 1.80468 6.82227 2.01001L6.82129 2.00903L6.00977 3.22876V3.22974C5.78144 3.57188 5.47208 3.85212 5.10938 4.04614C4.79193 4.21593 4.4421 4.3151 4.08398 4.33716L3.92969 4.34204H3C2.60218 4.34204 2.22076 4.50019 1.93945 4.78149C1.65815 5.0628 1.5 5.44422 1.5 5.84204V14.842C1.5 15.2399 1.65815 15.6213 1.93945 15.9026C2.22076 16.1839 2.60218 16.342 3 16.342H17C17.3978 16.342 17.7792 16.1839 18.0605 15.9026C18.3419 15.6213 18.5 15.2399 18.5 14.842V5.84204C18.5 5.44422 18.3419 5.0628 18.0605 4.78149C17.7792 4.50019 17.3978 4.34204 17 4.34204H16.0703C15.6588 4.3421 15.2535 4.24021 14.8906 4.04614C14.5279 3.85212 14.2186 3.57188 13.9902 3.22974V3.22876L13.1777 2.00903V2.01001C13.0407 1.80468 12.8553 1.63621 12.6377 1.51978C12.4745 1.43246 12.2969 1.37634 12.1143 1.35376L11.9297 1.34204H8.07031ZM10 6.34204C10.9283 6.34204 11.8182 6.71105 12.4746 7.36743C13.131 8.02381 13.5 8.91378 13.5 9.84204C13.5 10.7703 13.131 11.6603 12.4746 12.3167C11.8182 12.973 10.9283 13.342 10 13.342C9.07174 13.342 8.18177 12.973 7.52539 12.3167C6.86901 11.6603 6.5 10.7703 6.5 9.84204C6.5 8.91378 6.86901 8.02381 7.52539 7.36743C8.18177 6.71105 9.07174 6.34204 10 6.34204ZM10 7.34204C9.33696 7.34204 8.70126 7.60562 8.23242 8.07446C7.76358 8.5433 7.5 9.179 7.5 9.84204C7.5 10.5051 7.76358 11.1408 8.23242 11.6096C8.70126 12.0785 9.33696 12.342 10 12.342C10.663 12.342 11.2987 12.0785 11.7676 11.6096C12.2364 11.1408 12.5 10.5051 12.5 9.84204L12.4873 9.59497C12.4305 9.02267 12.1778 8.48469 11.7676 8.07446C11.2987 7.60562 10.663 7.34204 10 7.34204Z"/>
</svg>
