<svg width="18" height="16">
<path class="i-str-white" d="M15.7663 2.07974C15.3753 1.68736 14.9111 1.37609 14.4002 1.16372C13.8893 0.951348 13.3417 0.842041 12.7887 0.842041C12.2357 0.842041 11.6881 0.951348 11.1772 1.16372C10.6663 1.37609 10.2021 1.68736 9.81116 2.07974L8.9998 2.8937L8.18843 2.07974C7.39874 1.28752 6.32768 0.842452 5.21089 0.842452C4.09409 0.842452 3.02303 1.28752 2.23334 2.07974C1.44365 2.87197 1 3.94645 1 5.06683C1 6.1872 1.44365 7.26169 2.23334 8.05391L8.9998 14.842L15.7663 8.05391C16.1574 7.66171 16.4677 7.19604 16.6794 6.6835C16.891 6.17097 17 5.62162 17 5.06683C17 4.51204 16.891 3.96268 16.6794 3.45015C16.4677 2.93762 16.1574 2.47195 15.7663 2.07974Z" stroke-linecap="round" stroke-linejoin="round"/>
</svg>
