<svg width="18" height="16">
<path class="i-str-white i-fill-white" d="M15.7663 2.59976C15.3753 2.20737 14.9111 1.89611 14.4002 1.68374C13.8893 1.47137 13.3417 1.36206 12.7887 1.36206C12.2357 1.36206 11.6881 1.47137 11.1772 1.68374C10.6663 1.89611 10.2021 2.20737 9.81116 2.59976L8.9998 3.41372L8.18843 2.59976C7.39874 1.80754 6.32768 1.36247 5.21089 1.36247C4.09409 1.36247 3.02303 1.80754 2.23334 2.59976C1.44365 3.39199 1 4.46647 1 5.58685C1 6.70722 1.44365 7.78171 2.23334 8.57393L8.9998 15.3621L15.7663 8.57393C16.1574 8.18173 16.4677 7.71606 16.6794 7.20352C16.891 6.69099 17 6.14164 17 5.58685C17 5.03206 16.891 4.4827 16.6794 3.97017C16.4677 3.45764 16.1574 2.99197 15.7663 2.59976Z" stroke-linecap="round" stroke-linejoin="round"/>
</svg>
