<svg width="24" height="24" viewBox="0 0 24 24">
<path class="i-str-white" d="M18.7663 7.0798C18.3753 6.68742 17.9111 6.37615 17.4002 6.16378C16.8893 5.95141 16.3417 5.8421 15.7887 5.8421C15.2357 5.8421 14.6881 5.95141 14.1772 6.16378C13.6663 6.37615 13.2021 6.68742 12.8112 7.0798L11.9998 7.89376L11.1884 7.0798C10.3987 6.28758 9.32768 5.84251 8.21089 5.84251C7.09409 5.84251 6.02303 6.28758 5.23334 7.0798C4.44365 7.87203 4 8.94651 4 10.0669C4 11.1873 4.44365 12.2617 5.23334 13.054L11.9998 19.8421L18.7663 13.054C19.1574 12.6618 19.4677 12.1961 19.6794 11.6836C19.891 11.171 20 10.6217 20 10.0669C20 9.5121 19.891 8.96274 19.6794 8.45021C19.4677 7.93768 19.1574 7.47201 18.7663 7.0798Z" stroke-linecap="round" stroke-linejoin="round"/>
</svg>
